# xmcd
#
# Track frame offsets: 
#        150
#        13567
#        32076
#        50924
#        69863
#        90526
#        109754
#        129147
#        143024
#        159346
#        183290
#        200476
#        215353
#        230147
#
# Disc length: 3291 seconds
#
# Revision: 0
# Processed by: cddbd v1.5.2PL0 Copyright (c) Steve Scherf et al.
# Submitted via: ExactAudioCopy v1.1
#
DISCID=b80cd90e
DTITLE=Chicago Bob Nelson - Flyin' Too High
DYEAR=2006
DGENRE=Blues
TTITLE0=Taking Care Of Business
TTITLE1=That's Why I Love You
TTITLE2=Flyin' Too High
TTITLE3=My Bleeding Heart
TTITLE4=Party After Hours
TTITLE5=Retirement Plan
TTITLE6=Howlin' For My Darlin'
TTITLE7=It's Hard Goin' Up
TTITLE8=The Blues Never Die
TTITLE9=Popcorn Man
TTITLE10=Wish I Had Someone To Love
TTITLE11=I'm Leavin'
TTITLE12=Shake For Me
TTITLE13=Christmas Tears
EXTD=
EXTT0=
EXTT1=
EXTT2=
EXTT3=
EXTT4=
EXTT5=
EXTT6=
EXTT7=
EXTT8=
EXTT9=
EXTT10=
EXTT11=
EXTT12=
EXTT13=
PLAYORDER=
